STARTFONT 2.1
COMMENT Created by fdbbdf
FONT helvetica22bi
SIZE 22 78 78
FONTBOUNDINGBOX 28 25 -2 -6
STARTPROPERTIES 4
Ownership "  Copyright (c) 1984 Adobe Systems, Inc.  /adobe/fonttools/bitmaps/stdfontvec.ps HM24.bits  TOTAL BITMAP BYTES 3882  GUIDELINES -5 14 0 19 DONE  WIDTHERR -121 7  "
FONT_ASCENT 19
FONT_DESCENT 6
DEFAULT_CHAR 32
ENDPROPERTIES
CHARS 95
STARTCHAR sp
ENCODING -1 32
SWIDTH 0 0
DWIDTH 7 0
BBX 0 0 0 0
BITMAP
ENDCHAR
STARTCHAR !
ENCODING -1 33
SWIDTH 0 0
DWIDTH 8 0
BBX 8 19 2 -1
BITMAP
0700
0700
0700
0e00
0e00
0e00
1c00
1c00
1800
3800
3800
3000
7000
7000
0000
0000
e000
e000
e000
ENDCHAR
STARTCHAR "
ENCODING -1 34
SWIDTH 0 0
DWIDTH 9 0
BBX 7 5 5 13
BITMAP
6600
6600
6600
cc00
8800
ENDCHAR
STARTCHAR #
ENCODING -1 35
SWIDTH 0 0
DWIDTH 14 0
BBX 14 18 1 -1
BITMAP
0198
0198
0198
0330
0330
1ffc
1ffc
0660
0cc0
0cc0
1980
ffe0
ffe0
3300
3300
6600
6600
6600
ENDCHAR
STARTCHAR $
ENCODING -1 36
SWIDTH 0 0
DWIDTH 13 0
BBX 14 22 1 -3
BITMAP
0060
0060
07f0
1ff8
1cdc
38dc
3980
3d80
1f80
0f00
0780
03c0
06e0
0670
0670
e670
ecf0
ede0
7fc0
3f80
1800
1800
ENDCHAR
STARTCHAR %
ENCODING -1 37
SWIDTH 0 0
DWIDTH 22 0
BBX 18 18 3 -1
BITMAP
00008000
0f018000
3f838000
31870000
618e0000
619c0000
63380000
7f700000
3ce00000
01c00000
038f0000
073f8000
0e318000
1c618000
38618000
70630000
607f0000
403c0000
ENDCHAR
STARTCHAR &
ENCODING -1 38
SWIDTH 0 0
DWIDTH 18 0
BBX 15 18 2 -1
BITMAP
01e0
07f0
0738
0e38
0e38
0e70
07e0
07c0
0f80
1f9c
39dc
70f8
e070
e070
e0f0
f1f8
7fdc
3f0e
ENDCHAR
STARTCHAR '
ENCODING -1 39
SWIDTH 0 0
DWIDTH 7 0
BBX 6 5 4 13
BITMAP
3c00
3c00
1c00
3800
e000
ENDCHAR
STARTCHAR (
ENCODING -1 40
SWIDTH 0 0
DWIDTH 8 0
BBX 10 24 2 -6
BITMAP
01c0
0380
0700
0e00
1c00
1800
3800
3000
7000
7000
e000
e000
e000
e000
e000
e000
e000
e000
e000
e000
7000
7000
3800
1c00
ENDCHAR
STARTCHAR )
ENCODING -1 41
SWIDTH 0 0
DWIDTH 8 0
BBX 10 24 0 -6
BITMAP
0e00
0700
0380
0380
01c0
01c0
01c0
01c0
01c0
01c0
01c0
01c0
01c0
01c0
0380
0380
0300
0700
0600
0e00
1c00
3800
7000
e000
ENDCHAR
STARTCHAR *
ENCODING -1 42
SWIDTH 0 0
DWIDTH 10 0
BBX 8 7 5 11
BITMAP
1800
db00
ff00
3800
7c00
ee00
c600
ENDCHAR
STARTCHAR +
ENCODING -1 43
SWIDTH 0 0
DWIDTH 15 0
BBX 14 12 1 1
BITMAP
0380
0380
0380
0380
0380
7ffc
7ffc
0380
0380
0380
0380
0380
ENDCHAR
STARTCHAR ,
ENCODING -1 44
SWIDTH 0 0
DWIDTH 7 0
BBX 4 6 1 -4
BITMAP
7000
7000
7000
3000
6000
c000
ENDCHAR
STARTCHAR -
ENCODING -1 45
SWIDTH 0 0
DWIDTH 11 0
BBX 10 2 1 6
BITMAP
3fc0
3fc0
ENDCHAR
STARTCHAR .
ENCODING -1 46
SWIDTH 0 0
DWIDTH 7 0
BBX 3 3 2 -1
BITMAP
e000
e000
e000
ENDCHAR
STARTCHAR /
ENCODING -1 47
SWIDTH 0 0
DWIDTH 8 0
BBX 12 19 0 -1
BITMAP
0070
0070
00e0
00e0
01c0
01c0
0380
0700
0700
0e00
0e00
1c00
1c00
3800
3800
7000
7000
e000
e000
ENDCHAR
STARTCHAR 0
ENCODING -1 48
SWIDTH 0 0
DWIDTH 14 0
BBX 14 18 1 -1
BITMAP
01e0
07f8
0f38
1c1c
381c
381c
701c
701c
601c
e018
e038
e038
e070
e070
e0e0
73c0
7f80
1e00
ENDCHAR
STARTCHAR 1
ENCODING -1 49
SWIDTH 0 0
DWIDTH 9 0
BBX 11 18 1 -1
BITMAP
01c0
01c0
03c0
1f80
1f80
0380
0380
0700
0700
0700
0700
0e00
0e00
0e00
0e00
1c00
1c00
1c00
ENDCHAR
STARTCHAR 2
ENCODING -1 50
SWIDTH 0 0
DWIDTH 15 0
BBX 15 18 1 -1
BITMAP
01f8
07fc
0f1e
1e0e
1c0e
000e
001c
003c
00f8
03e0
0780
0f00
1c00
3800
7000
e000
fff0
fff0
ENDCHAR
STARTCHAR 3
ENCODING -1 51
SWIDTH 0 0
DWIDTH 13 0
BBX 13 18 1 -1
BITMAP
07c0
1ff0
1c70
3838
3038
0038
0070
01e0
07c0
07e0
00f0
0070
0070
0070
e0e0
f1e0
7fc0
1f00
ENDCHAR
STARTCHAR 4
ENCODING -1 52
SWIDTH 0 0
DWIDTH 13 0
BBX 13 18 1 -1
BITMAP
0018
0038
0078
00f0
01f0
03f0
0770
0e60
1ce0
38e0
70c0
e1c0
fff0
fff0
01c0
0380
0380
0380
ENDCHAR
STARTCHAR 5
ENCODING -1 53
SWIDTH 0 0
DWIDTH 13 0
BBX 14 18 1 -1
BITMAP
0ffc
0ffc
0e00
1c00
1c00
1c00
3fc0
3fe0
38f0
0070
0070
0070
0070
e0f0
e0e0
f3c0
7f80
3f00
ENDCHAR
STARTCHAR 6
ENCODING -1 54
SWIDTH 0 0
DWIDTH 13 0
BBX 14 18 1 -1
BITMAP
01e0
07f0
0f38
1c18
3800
3800
7780
7fe0
7ce0
f070
f070
e070
e070
e0e0
e0e0
73c0
7f80
1e00
ENDCHAR
STARTCHAR 7
ENCODING -1 55
SWIDTH 0 0
DWIDTH 13 0
BBX 14 18 2 -1
BITMAP
3ffc
3ffc
0038
0070
00e0
01c0
01c0
0380
0700
0700
0e00
1c00
1c00
3800
7000
7000
e000
e000
ENDCHAR
STARTCHAR 8
ENCODING -1 56
SWIDTH 0 0
DWIDTH 13 0
BBX 13 18 1 -1
BITMAP
03e0
0ff0
0e78
1c38
1c38
1c30
0e70
07e0
0fc0
3fe0
78f0
7070
e070
e070
e0e0
f1e0
7fc0
1f00
ENDCHAR
STARTCHAR 9
ENCODING -1 57
SWIDTH 0 0
DWIDTH 14 0
BBX 14 18 1 -1
BITMAP
01e0
07f8
0f38
1c1c
1c1c
381c
381c
383c
383c
1cf8
1ff8
07b8
0030
0070
60e0
73c0
3f80
1e00
ENDCHAR
STARTCHAR :
ENCODING -1 58
SWIDTH 0 0
DWIDTH 8 0
BBX 6 14 3 -1
BITMAP
1c00
1c00
1c00
0000
0000
0000
0000
0000
0000
0000
0000
e000
e000
e000
ENDCHAR
STARTCHAR ;
ENCODING -1 59
SWIDTH 0 0
DWIDTH 8 0
BBX 7 17 2 -4
BITMAP
0e00
0e00
0e00
0000
0000
0000
0000
0000
0000
0000
0000
7000
7000
7000
3000
6000
c000
ENDCHAR
STARTCHAR <
ENCODING -1 60
SWIDTH 0 0
DWIDTH 15 0
BBX 12 11 3 1
BITMAP
0070
01e0
0780
1e00
7800
e000
f000
3c00
0f00
03c0
00e0
ENDCHAR
STARTCHAR =
ENCODING -1 61
SWIDTH 0 0
DWIDTH 13 0
BBX 11 6 1 3
BITMAP
3fe0
3fe0
0000
0000
3fe0
3fe0
ENDCHAR
STARTCHAR >
ENCODING -1 62
SWIDTH 0 0
DWIDTH 15 0
BBX 14 11 1 1
BITMAP
1c00
0f00
03c0
00f0
003c
001c
0078
01e0
0780
1e00
3800
ENDCHAR
STARTCHAR ?
ENCODING -1 63
SWIDTH 0 0
DWIDTH 15 0
BBX 12 19 5 -1
BITMAP
0fc0
3fe0
78f0
7070
e070
e0f0
01e0
07c0
0f00
1c00
3800
7000
7000
7000
0000
0000
7000
7000
7000
ENDCHAR
STARTCHAR @
ENCODING -1 64
SWIDTH 0 0
DWIDTH 24 0
BBX 23 23 2 -5
BITMAP
003fc000
00fff000
03e07800
07801c00
0f000c00
1e1cce00
1c7fce00
38e78e00
71c38e00
73830e00
e3870e00
e7061c00
e70e1c00
e70c3800
e71c3800
e39e7000
e3ffe000
71e3c000
70000000
78000000
3e1c0000
0ffc0000
03f00000
ENDCHAR
STARTCHAR A
ENCODING -1 65
SWIDTH 0 0
DWIDTH 17 0
BBX 16 19 1 -1
BITMAP
001c
003c
003c
007c
007c
00ec
00ce
01ce
018e
038e
030e
070e
07fe
0ffe
0e07
1c07
1c07
3807
3807
ENDCHAR
STARTCHAR B
ENCODING -1 66
SWIDTH 0 0
DWIDTH 18 0
BBX 17 19 2 -1
BITMAP
0ffe0000
0fff0000
0e078000
0e038000
1c038000
1c038000
1c078000
1c0f0000
3ffe0000
3ffe0000
38070000
38070000
70070000
70070000
700f0000
e01e0000
e07c0000
fff80000
ffe00000
ENDCHAR
STARTCHAR C
ENCODING -1 67
SWIDTH 0 0
DWIDTH 18 0
BBX 16 19 3 -1
BITMAP
01fc
07fe
0f8f
1e07
3807
7800
7000
f000
e000
e000
e000
e000
e000
e006
f00e
703c
78f8
3ff0
0fc0
ENDCHAR
STARTCHAR D
ENCODING -1 68
SWIDTH 0 0
DWIDTH 19 0
BBX 18 19 2 -1
BITMAP
0ffc0000
0fff0000
0e0f8000
0e038000
1c01c000
1c01c000
1c01c000
1c01c000
3801c000
3801c000
3801c000
38038000
70038000
70078000
700f0000
701e0000
e07c0000
fff80000
ffe00000
ENDCHAR
STARTCHAR E
ENCODING -1 69
SWIDTH 0 0
DWIDTH 16 0
BBX 16 19 2 -1
BITMAP
0fff
0fff
0e00
0e00
1c00
1c00
1c00
1c00
3ff8
3ff8
3800
3800
7000
7000
7000
7000
e000
fff8
fff8
ENDCHAR
STARTCHAR F
ENCODING -1 70
SWIDTH 0 0
DWIDTH 15 0
BBX 16 19 2 -1
BITMAP
0fff
0fff
0e00
0e00
1c00
1c00
1c00
1c00
3ff8
3ff8
3800
3800
7000
7000
7000
7000
e000
e000
e000
ENDCHAR
STARTCHAR G
ENCODING -1 71
SWIDTH 0 0
DWIDTH 19 0
BBX 17 19 3 -1
BITMAP
01f80000
07fe0000
0f8e0000
1e070000
38070000
78000000
70000000
f0000000
e0000000
e0ff0000
e0ff0000
e00e0000
e00e0000
e01e0000
f01c0000
703c0000
78fc0000
3ff80000
0f380000
ENDCHAR
STARTCHAR H
ENCODING -1 72
SWIDTH 0 0
DWIDTH 19 0
BBX 19 19 2 -1
BITMAP
0e00e000
0e00e000
0e00e000
0e00e000
1c01c000
1c01c000
1c01c000
1c01c000
3fff8000
3fff8000
38038000
38038000
70070000
70070000
70070000
70070000
e00e0000
e00e0000
e00e0000
ENDCHAR
STARTCHAR I
ENCODING -1 73
SWIDTH 0 0
DWIDTH 7 0
BBX 7 19 2 -1
BITMAP
0e00
0e00
0e00
0e00
1c00
1c00
1c00
1c00
3800
3800
3800
3800
7000
7000
7000
7000
e000
e000
e000
ENDCHAR
STARTCHAR J
ENCODING -1 74
SWIDTH 0 0
DWIDTH 14 0
BBX 14 19 2 -1
BITMAP
001c
001c
001c
001c
0038
0038
0038
0038
0070
0070
0070
0070
00e0
e0e0
e1e0
e1c0
77c0
7f80
3e00
ENDCHAR
STARTCHAR K
ENCODING -1 75
SWIDTH 0 0
DWIDTH 18 0
BBX 18 19 2 -1
BITMAP
0e03c000
0e078000
0e0f0000
0e1e0000
1c380000
1cf00000
1de00000
1fc00000
3f800000
3fc00000
39e00000
38e00000
70700000
70780000
703c0000
701c0000
e00e0000
e00f0000
e0070000
ENDCHAR
STARTCHAR L
ENCODING -1 76
SWIDTH 0 0
DWIDTH 15 0
BBX 12 19 2 -1
BITMAP
0e00
0e00
0e00
0e00
1c00
1c00
1c00
1c00
3800
3800
3800
3800
7000
7000
7000
7000
e000
fff0
fff0
ENDCHAR
STARTCHAR M
ENCODING -1 77
SWIDTH 0 0
DWIDTH 23 0
BBX 23 19 2 -1
BITMAP
0e000e00
0e001e00
0f003e00
0f003e00
1f007c00
1f80fc00
1f81dc00
1d81dc00
3983b800
39c73800
39c73800
39ce3800
71dc7000
71dc7000
70f87000
70f07000
e0f0e000
e0e0e000
e0e0e000
ENDCHAR
STARTCHAR N
ENCODING -1 78
SWIDTH 0 0
DWIDTH 19 0
BBX 19 19 2 -1
BITMAP
0e00e000
0e00e000
0f00e000
0f00e000
1f81c000
1d81c000
1dc1c000
19c1c000
39c38000
38e38000
38e38000
38638000
70730000
70770000
70370000
703f0000
e01e0000
e01e0000
e00e0000
ENDCHAR
STARTCHAR O
ENCODING -1 79
SWIDTH 0 0
DWIDTH 19 0
BBX 17 19 3 -1
BITMAP
01f80000
07fe0000
0f8f0000
1e070000
38078000
78038000
70038000
f0038000
e0038000
e0038000
e0038000
e0078000
e0070000
e00f0000
f00e0000
703c0000
78f80000
3ff00000
0fc00000
ENDCHAR
STARTCHAR P
ENCODING -1 80
SWIDTH 0 0
DWIDTH 17 0
BBX 17 19 2 -1
BITMAP
0ffc0000
0fff0000
0e078000
0e038000
1c038000
1c038000
1c070000
1c0f0000
3ffe0000
3ff80000
38000000
38000000
70000000
70000000
70000000
70000000
e0000000
e0000000
e0000000
ENDCHAR
STARTCHAR Q
ENCODING -1 81
SWIDTH 0 0
DWIDTH 19 0
BBX 17 19 3 -1
BITMAP
01f80000
07fe0000
0f8f0000
1e070000
38078000
78038000
70038000
f0038000
e0038000
e0038000
e0038000
e0078000
e0070000
e00f0000
f1ee0000
70fc0000
78780000
3ffc0000
0fde0000
ENDCHAR
STARTCHAR R
ENCODING -1 82
SWIDTH 0 0
DWIDTH 17 0
BBX 17 19 2 -1
BITMAP
0ffe0000
0fff0000
0e078000
0e038000
1c038000
1c038000
1c070000
1c0f0000
3ffe0000
3ffc0000
381e0000
380e0000
700e0000
700e0000
700e0000
700e0000
e01c0000
e01c0000
e01c0000
ENDCHAR
STARTCHAR S
ENCODING -1 83
SWIDTH 0 0
DWIDTH 17 0
BBX 16 19 2 -1
BITMAP
00fc
03fe
078f
0e07
1c07
1c00
1e00
0f80
07f0
01fc
003e
000e
000e
e00e
e01e
f03c
7cf8
3ff0
0fc0
ENDCHAR
STARTCHAR T
ENCODING -1 84
SWIDTH 0 0
DWIDTH 15 0
BBX 15 19 4 -1
BITMAP
fffe
fffe
0380
0380
0700
0700
0700
0700
0e00
0e00
0e00
0e00
1c00
1c00
1c00
1c00
3800
3800
3800
ENDCHAR
STARTCHAR U
ENCODING -1 85
SWIDTH 0 0
DWIDTH 19 0
BBX 18 19 3 -1
BITMAP
1c01c000
1c01c000
1c01c000
1c01c000
38038000
38038000
38038000
38038000
70070000
70070000
70070000
70070000
e00e0000
e00e0000
e01c0000
f03c0000
78f80000
7ff00000
1fc00000
ENDCHAR
STARTCHAR V
ENCODING -1 86
SWIDTH 0 0
DWIDTH 16 0
BBX 24 20 1 -2
BITMAP
1c018000
1c038000
1c038000
1c070000
1c070000
0e0e0000
0e0e0000
0e1c0000
0e1c0000
0e380000
0e380000
0e700000
0e700000
06e00000
07e00000
07c00000
07c00000
07800000
07800000
00000000
ENDCHAR
STARTCHAR W
ENCODING -1 87
SWIDTH 0 0
DWIDTH 23 0
BBX 21 19 5 -1
BITMAP
e0701800
e0703800
e0703800
e0f07000
e0f07000
e0f0e000
e1f0e000
e1f1c000
e3f1c000
e3738000
e7738000
e6770000
ee770000
7c3e0000
7c3e0000
783c0000
783c0000
70380000
70380000
ENDCHAR
STARTCHAR X
ENCODING -1 88
SWIDTH 0 0
DWIDTH 18 0
BBX 20 19 1 -1
BITMAP
0e007000
0f00f000
0701e000
0783c000
03878000
03cf0000
01de0000
01fc0000
00f80000
00f00000
01f80000
03f80000
07bc0000
0f1c0000
1e1e0000
3c0e0000
780f0000
f0070000
e0070000
ENDCHAR
STARTCHAR Y
ENCODING -1 89
SWIDTH 0 0
DWIDTH 17 0
BBX 15 19 5 -1
BITMAP
e00e
e01e
e03c
7078
7070
70e0
39c0
39c0
3b80
3f00
1f00
1e00
1c00
1c00
1c00
3800
3800
3800
3800
ENDCHAR
STARTCHAR Z
ENCODING -1 90
SWIDTH 0 0
DWIDTH 16 0
BBX 18 19 1 -1
BITMAP
0fffc000
0fffc000
0003c000
00078000
000f0000
001e0000
003c0000
00780000
00f00000
01e00000
03c00000
07800000
0f000000
1e000000
3c000000
78000000
f0000000
fffc0000
fffc0000
ENDCHAR
STARTCHAR [
ENCODING -1 91
SWIDTH 0 0
DWIDTH 8 0
BBX 10 24 0 -6
BITMAP
07c0
07c0
0700
0700
0e00
0e00
0e00
0e00
1c00
1c00
1c00
1c00
3800
3800
3800
3800
7000
7000
7000
7000
e000
e000
f800
f800
ENDCHAR
STARTCHAR \
ENCODING -1 92
SWIDTH 0 0
DWIDTH 8 0
BBX 4 19 4 -1
BITMAP
e000
e000
e000
e000
e000
e000
e000
e000
e000
e000
7000
7000
7000
7000
7000
7000
7000
7000
7000
ENDCHAR
STARTCHAR ]
ENCODING -1 93
SWIDTH 0 0
DWIDTH 8 0
BBX 10 24 1 -6
BITMAP
07c0
07c0
01c0
01c0
0380
0380
0380
0380
0700
0700
0700
0700
0e00
0e00
0e00
0e00
1c00
1c00
1c00
1c00
3800
3800
f800
f800
ENDCHAR
STARTCHAR ^
ENCODING -1 94
SWIDTH 0 0
DWIDTH 14 0
BBX 12 9 3 9
BITMAP
0180
0380
07c0
0ec0
1ce0
1860
3870
7030
e030
ENDCHAR
STARTCHAR _
ENCODING -1 95
SWIDTH 0 0
DWIDTH 14 0
BBX 14 2 -1 -6
BITMAP
fffc
fffc
ENDCHAR
STARTCHAR `
ENCODING -1 96
SWIDTH 0 0
DWIDTH 7 0
BBX 6 5 4 13
BITMAP
1c00
7000
c000
f000
f000
ENDCHAR
STARTCHAR a
ENCODING -1 97
SWIDTH 0 0
DWIDTH 14 0
BBX 12 14 2 -1
BITMAP
07e0
1ff0
3c70
3870
00f0
07e0
1fe0
3ce0
70e0
e0e0
e1c0
e7c0
ffc0
7dc0
ENDCHAR
STARTCHAR b
ENCODING -1 98
SWIDTH 0 0
DWIDTH 15 0
BBX 14 19 2 -1
BITMAP
0e00
0e00
0e00
1c00
1c00
1df0
1ff8
3f38
3c1c
381c
381c
381c
701c
7038
7038
7070
f9e0
ffc0
ef00
ENDCHAR
STARTCHAR c
ENCODING -1 99
SWIDTH 0 0
DWIDTH 13 0
BBX 12 14 2 -1
BITMAP
03c0
0fe0
1e70
3830
7030
7000
e000
e000
e000
e060
e0e0
73c0
7f80
1e00
ENDCHAR
STARTCHAR d
ENCODING -1 100
SWIDTH 0 0
DWIDTH 15 0
BBX 15 19 2 -1
BITMAP
000e
000e
000e
001c
001c
03dc
0ffc
1e78
3838
7038
7038
e038
e030
e070
e070
e0f0
73e0
7fe0
1ee0
ENDCHAR
STARTCHAR e
ENCODING -1 101
SWIDTH 0 0
DWIDTH 14 0
BBX 13 14 2 -1
BITMAP
03c0
0ff0
1e70
3838
7038
7038
fff8
fff0
e000
e000
e0e0
73c0
7f80
1e00
ENDCHAR
STARTCHAR f
ENCODING -1 102
SWIDTH 0 0
DWIDTH 10 0
BBX 10 19 3 -1
BITMAP
07c0
0fc0
0e00
1c00
1c00
7f80
7f80
1c00
3800
3800
3800
3800
7000
7000
7000
7000
e000
e000
e000
ENDCHAR
STARTCHAR g
ENCODING -1 103
SWIDTH 0 0
DWIDTH 15 0
BBX 16 19 0 -6
BITMAP
00f7
03ff
079f
0e0e
1c0e
1c0e
380e
381c
381c
381c
383c
1cf8
1ff8
07b8
0030
e070
f0e0
7fc0
1f00
ENDCHAR
STARTCHAR h
ENCODING -1 104
SWIDTH 0 0
DWIDTH 15 0
BBX 13 19 2 -1
BITMAP
0e00
0e00
0e00
1c00
1c00
1de0
1ff0
3e78
3c38
3838
3838
3838
7070
7070
7070
7070
e0e0
e0e0
e0e0
ENDCHAR
STARTCHAR i
ENCODING -1 105
SWIDTH 0 0
DWIDTH 8 0
BBX 7 19 2 -1
BITMAP
0e00
0e00
0e00
0000
0000
1c00
1c00
1c00
3800
3800
3800
3800
7000
7000
7000
7000
e000
e000
e000
ENDCHAR
STARTCHAR j
ENCODING -1 106
SWIDTH 0 0
DWIDTH 8 0
BBX 11 24 -2 -6
BITMAP
00e0
00e0
00e0
0000
0000
01c0
01c0
01c0
0380
0380
0380
0380
0700
0700
0700
0700
0e00
0e00
0e00
1c00
1c00
1c00
f800
f000
ENDCHAR
STARTCHAR k
ENCODING -1 107
SWIDTH 0 0
DWIDTH 14 0
BBX 13 19 2 -1
BITMAP
0e00
0e00
0e00
0e00
1c00
1c38
1c70
1ce0
39c0
3f80
3f00
3f80
7380
71c0
71c0
70e0
e0e0
e070
e070
ENDCHAR
STARTCHAR l
ENCODING -1 108
SWIDTH 0 0
DWIDTH 7 0
BBX 7 19 2 -1
BITMAP
0e00
0e00
0e00
0e00
1c00
1c00
1c00
1c00
3800
3800
3800
3800
7000
7000
7000
7000
e000
e000
e000
ENDCHAR
STARTCHAR m
ENCODING -1 109
SWIDTH 0 0
DWIDTH 21 0
BBX 19 14 2 -1
BITMAP
1dc7c000
1fefe000
1e7ce000
3c78e000
3870e000
3870e000
3870e000
70e1c000
70e1c000
70e1c000
70e1c000
e1c38000
e1c38000
e1c38000
ENDCHAR
STARTCHAR n
ENCODING -1 110
SWIDTH 0 0
DWIDTH 15 0
BBX 13 14 2 -1
BITMAP
19e0
1bf0
1e70
3c38
3c38
3838
3838
7070
7070
7070
7070
e0e0
e0e0
e0e0
ENDCHAR
STARTCHAR o
ENCODING -1 111
SWIDTH 0 0
DWIDTH 14 0
BBX 13 14 2 -1
BITMAP
03c0
0ff0
1e70
3838
7038
7038
e038
e038
e070
e070
e0e0
73c0
7f80
1e00
ENDCHAR
STARTCHAR p
ENCODING -1 112
SWIDTH 0 0
DWIDTH 15 0
BBX 15 19 1 -6
BITMAP
0ef0
0ffc
0f9c
1e0e
1c0e
1c0e
180e
380e
381c
381c
3838
3cf0
7fe0
7780
7000
7000
e000
e000
e000
ENDCHAR
STARTCHAR q
ENCODING -1 113
SWIDTH 0 0
DWIDTH 15 0
BBX 14 19 2 -6
BITMAP
03dc
0ffc
1e7c
3838
7038
7038
e038
e030
e070
e070
e0f0
73f0
7fe0
1ee0
00e0
00e0
01c0
01c0
01c0
ENDCHAR
STARTCHAR r
ENCODING -1 114
SWIDTH 0 0
DWIDTH 10 0
BBX 10 14 2 -1
BITMAP
19c0
1bc0
1fc0
3c00
3800
3800
3800
7000
7000
7000
7000
e000
e000
e000
ENDCHAR
STARTCHAR s
ENCODING -1 115
SWIDTH 0 0
DWIDTH 13 0
BBX 13 14 2 -1
BITMAP
07c0
1fe0
3cf0
7070
7000
7c00
3f00
07c0
01e0
e0e0
e0e0
f1e0
7fc0
1f00
ENDCHAR
STARTCHAR t
ENCODING -1 116
SWIDTH 0 0
DWIDTH 10 0
BBX 9 18 3 -1
BITMAP
0e00
0e00
0e00
1c00
7f80
7f80
1c00
3800
3800
3800
7000
7000
7000
e000
e000
e000
fc00
7c00
ENDCHAR
STARTCHAR u
ENCODING -1 117
SWIDTH 0 0
DWIDTH 15 0
BBX 13 14 3 -1
BITMAP
3838
3838
3838
7070
7070
7070
7070
e0e0
e0e0
e1e0
e1e0
73c0
7ec0
3cc0
ENDCHAR
STARTCHAR v
ENCODING -1 118
SWIDTH 0 0
DWIDTH 12 0
BBX 12 14 4 -1
BITMAP
e0c0
e1c0
e180
e380
e300
e700
e600
ee00
ec00
7c00
7800
7800
7000
7000
ENDCHAR
STARTCHAR w
ENCODING -1 119
SWIDTH 0 0
DWIDTH 19 0
BBX 18 14 3 -1
BITMAP
e0e0c000
e1e1c000
e1e18000
e3e38000
e3630000
e7670000
e6660000
ee6e0000
ec6c0000
7c7c0000
78780000
78780000
70700000
70700000
ENDCHAR
STARTCHAR x
ENCODING -1 120
SWIDTH 0 0
DWIDTH 13 0
BBX 14 14 1 -1
BITMAP
1c0c
1c1c
0e38
0e70
07e0
07c0
0380
0780
0fc0
1dc0
38e0
70e0
e070
c070
ENDCHAR
STARTCHAR y
ENCODING -1 121
SWIDTH 0 0
DWIDTH 14 0
BBX 14 19 2 -6
BITMAP
701c
701c
7038
7038
3870
3870
38e0
38e0
1dc0
1dc0
1f80
0f00
0f00
0e00
0e00
1c00
3c00
f800
e000
ENDCHAR
STARTCHAR z
ENCODING -1 122
SWIDTH 0 0
DWIDTH 13 0
BBX 13 14 1 -1
BITMAP
1ff8
1ff8
0070
00e0
01c0
0380
0700
0e00
1c00
3800
7000
e000
ffe0
ffe0
ENDCHAR
STARTCHAR {
ENCODING -1 123
SWIDTH 0 0
DWIDTH 10 0
BBX 10 24 3 -6
BITMAP
03c0
07c0
0e00
0c00
1c00
1800
1800
1800
1800
3800
f000
e000
3000
3000
3000
3000
6000
6000
6000
c000
c000
c000
f800
7800
ENDCHAR
STARTCHAR |
ENCODING -1 124
SWIDTH 0 0
DWIDTH 7 0
BBX 8 24 1 -6
BITMAP
0700
0700
0700
0700
0e00
0e00
0e00
0e00
1c00
1c00
1c00
1c00
3800
3800
3800
3800
7000
7000
7000
7000
e000
e000
e000
e000
ENDCHAR
STARTCHAR }
ENCODING -1 125
SWIDTH 0 0
DWIDTH 10 0
BBX 10 24 1 -6
BITMAP
0780
07c0
00c0
00c0
00c0
0180
0180
0180
0380
0300
03c0
01c0
0300
0300
0300
0600
0600
0600
0600
0e00
0c00
1c00
f800
f000
ENDCHAR
STARTCHAR ~
ENCODING -1 126
SWIDTH 0 0
DWIDTH 14 0
BBX 12 4 2 4
BITMAP
3c30
7e70
e7e0
c3c0
ENDCHAR
ENDFONT
